<svg xmlns="http://www.w3.org/2000/svg" xmlns:xlink="http://www.w3.org/1999/xlink" width="1080" zoomAndPan="magnify" viewBox="0 0 810 809.999993" height="1080" preserveAspectRatio="xMidYMid meet" version="1.0"><defs><clipPath id="5659e13ce7"><path d="M 0 244 L 237.75 244 L 237.75 566 L 0 566 Z M 0 244 " clip-rule="nonzero"/></clipPath><clipPath id="a2bf925c09"><path d="M 0 243 L 237.75 243 L 237.75 567 L 0 567 Z M 0 243 " clip-rule="nonzero"/></clipPath><clipPath id="43bdb2fb58"><path d="M 290.421875 243 L 519.921875 243 L 519.921875 567 L 290.421875 567 Z M 290.421875 243 " clip-rule="nonzero"/></clipPath><clipPath id="22bc01dc63"><path d="M 572.078125 244 L 797 244 L 797 553 L 572.078125 553 Z M 572.078125 244 " clip-rule="nonzero"/></clipPath><clipPath id="ada7fb68d8"><path d="M 572.078125 244 L 809.828125 244 L 809.828125 566 L 572.078125 566 Z M 572.078125 244 " clip-rule="nonzero"/></clipPath><clipPath id="4653d40a25"><path d="M 572.078125 243 L 809.828125 243 L 809.828125 567 L 572.078125 567 Z M 572.078125 243 " clip-rule="nonzero"/></clipPath></defs><path fill="#15cc6d" d="M 224.578125 416.195312 L 192.621094 416.195312 L 192.621094 244.230469 L 103.339844 244.230469 L 0.726562 416.195312 L 0.726562 476.417969 L 132.328125 476.417969 L 132.328125 552.4375 L 192.546875 552.4375 L 192.546875 476.417969 L 224.503906 476.417969 L 224.503906 416.195312 Z M 75.148438 416.195312 L 130.949219 306.40625 L 132.398438 306.40625 L 132.398438 416.195312 Z M 75.148438 416.195312 " fill-opacity="1" fill-rule="nonzero"/><g clip-path="url(#5659e13ce7)"><path fill="#00a859" d="M 94.5 416.195312 L 75.078125 416.195312 L 130.875 306.40625 L 132.328125 306.40625 L 132.328125 341.773438 Z M 205.230469 319.667969 L 205.230469 257.492188 L 192.621094 244.230469 L 192.621094 416.125 L 205.300781 416.125 L 205.300781 319.667969 Z M 224.578125 416.195312 L 224.578125 476.417969 L 192.621094 476.417969 L 192.621094 552.4375 L 132.398438 552.4375 L 145.082031 565.699219 L 205.300781 565.699219 L 205.300781 489.679688 L 237.257812 489.679688 L 237.257812 429.457031 Z M 132.328125 476.417969 L 0.726562 476.417969 L 13.40625 489.679688 L 132.398438 489.679688 L 132.398438 476.417969 Z M 132.328125 476.417969 " fill-opacity="1" fill-rule="nonzero"/></g><g clip-path="url(#a2bf925c09)"><path fill="#ffffff" d="M 133.050781 416.195312 L 133.050781 306.335938 C 133.050781 305.898438 132.761719 305.609375 132.328125 305.609375 L 130.875 305.609375 C 130.585938 305.609375 130.371094 305.753906 130.226562 305.972656 L 74.425781 415.761719 C 74.28125 415.980469 74.351562 416.269531 74.425781 416.484375 C 74.570312 416.703125 74.785156 416.847656 75.078125 416.847656 L 132.328125 416.847656 C 132.761719 416.921875 133.050781 416.558594 133.050781 416.195312 Z M 76.308594 415.472656 L 131.382812 307.132812 L 131.675781 307.132812 L 131.675781 341.554688 L 94.136719 415.472656 Z M 95.730469 415.472656 L 131.675781 344.742188 L 131.675781 415.472656 Z M 237.765625 428.949219 L 225.085938 415.6875 C 225.085938 415.6875 225.085938 415.6875 225.011719 415.6875 C 224.941406 415.617188 224.941406 415.617188 224.867188 415.542969 C 224.867188 415.542969 224.796875 415.542969 224.796875 415.542969 C 224.722656 415.542969 224.648438 415.542969 224.578125 415.472656 C 224.578125 415.472656 224.578125 415.472656 224.503906 415.472656 L 205.882812 415.472656 L 205.882812 257.492188 C 205.882812 257.273438 205.808594 257.128906 205.664062 256.984375 L 193.125 243.722656 C 193.054688 243.648438 192.980469 243.648438 192.980469 243.578125 C 192.980469 243.578125 192.910156 243.578125 192.910156 243.578125 C 192.835938 243.578125 192.765625 243.578125 192.691406 243.503906 C 192.691406 243.503906 192.691406 243.503906 192.621094 243.503906 L 103.339844 243.503906 C 103.050781 243.503906 102.832031 243.648438 102.6875 243.867188 L 0.0742188 415.761719 C 0 415.90625 0 416.050781 0 416.195312 L 0 476.417969 C 0 476.417969 0 476.417969 0 476.488281 C 0 476.5625 0 476.632812 0.0742188 476.707031 C 0.0742188 476.707031 0.0742188 476.78125 0.0742188 476.78125 C 0.0742188 476.851562 0.144531 476.925781 0.21875 476.996094 L 12.898438 490.257812 C 13.042969 490.402344 13.261719 490.476562 13.40625 490.476562 L 131.675781 490.476562 L 131.675781 552.4375 C 131.675781 552.4375 131.675781 552.4375 131.675781 552.507812 C 131.675781 552.582031 131.675781 552.652344 131.746094 552.726562 C 131.746094 552.726562 131.746094 552.796875 131.746094 552.796875 C 131.746094 552.871094 131.820312 552.941406 131.890625 553.015625 L 144.574219 566.277344 C 144.71875 566.421875 144.9375 566.496094 145.082031 566.496094 L 205.300781 566.496094 C 205.734375 566.496094 206.027344 566.203125 206.027344 565.769531 L 206.027344 490.402344 L 237.257812 490.402344 C 237.695312 490.402344 237.984375 490.113281 237.984375 489.679688 L 237.984375 429.457031 C 237.984375 429.242188 237.910156 429.09375 237.765625 428.949219 Z M 204.503906 415.472656 L 193.273438 415.472656 L 193.273438 246.042969 L 204.503906 257.78125 Z M 1.449219 416.339844 L 103.773438 244.953125 L 191.894531 244.953125 L 191.894531 416.195312 C 191.894531 416.632812 192.183594 416.921875 192.621094 416.921875 L 223.925781 416.921875 L 223.925781 475.691406 L 192.691406 475.691406 C 192.257812 475.691406 191.96875 475.980469 191.96875 476.417969 L 191.96875 551.710938 L 133.195312 551.710938 L 133.195312 476.488281 C 133.195312 476.054688 132.90625 475.765625 132.472656 475.765625 L 1.449219 475.765625 Z M 13.695312 488.953125 L 2.390625 477.140625 L 131.601562 477.140625 L 131.601562 488.953125 Z M 236.535156 488.953125 L 205.300781 488.953125 C 204.867188 488.953125 204.578125 489.242188 204.578125 489.679688 L 204.578125 564.972656 L 145.371094 564.972656 L 134.066406 553.160156 L 192.621094 553.160156 C 193.054688 553.160156 193.34375 552.871094 193.34375 552.4375 L 193.34375 477.140625 L 224.578125 477.140625 C 225.011719 477.140625 225.300781 476.851562 225.300781 476.417969 L 225.300781 418.007812 L 236.535156 429.746094 Z M 236.535156 488.953125 " fill-opacity="1" fill-rule="nonzero"/></g><path fill="#15cc6d" d="M 404.03125 243.714844 L 392.25 243.714844 C 336.417969 243.714844 291.152344 291.90625 291.152344 351.308594 L 291.152344 441.054688 C 291.152344 500.457031 336.417969 548.652344 392.25 548.652344 L 404.03125 548.652344 C 459.863281 548.652344 505.128906 500.457031 505.128906 441.054688 L 505.128906 351.308594 C 505.128906 291.90625 459.863281 243.714844 404.03125 243.714844 Z M 451.511719 435.914062 C 451.511719 464.257812 429.949219 487.179688 403.316406 487.179688 L 392.894531 487.179688 C 366.261719 487.179688 344.703125 464.257812 344.703125 435.914062 L 344.703125 356.449219 C 344.703125 328.105469 366.261719 305.1875 392.894531 305.1875 L 403.316406 305.1875 C 429.949219 305.1875 451.511719 328.105469 451.511719 356.449219 Z M 451.511719 435.914062 " fill-opacity="1" fill-rule="nonzero"/><path fill="#00a859" d="M 344.773438 435.914062 L 344.773438 356.449219 C 344.773438 328.105469 366.335938 305.1875 392.964844 305.1875 L 403.390625 305.1875 C 422.238281 305.1875 438.515625 316.683594 446.441406 333.460938 C 438.304688 326.820312 428.164062 322.820312 417.097656 322.820312 L 406.675781 322.820312 C 380.042969 322.820312 358.480469 345.742188 358.480469 374.085938 L 358.480469 453.550781 C 358.480469 461.832031 360.335938 469.613281 363.621094 476.539062 C 352.125 467.1875 344.773438 452.480469 344.773438 435.914062 Z M 488.421875 292.050781 C 498.992188 309.042969 505.128906 329.390625 505.128906 351.308594 L 505.128906 441.054688 C 505.128906 500.457031 459.863281 548.652344 404.03125 548.652344 L 392.25 548.652344 C 364.765625 548.652344 339.847656 536.941406 321.570312 517.949219 C 339.632812 547.082031 370.691406 566.285156 405.960938 566.285156 L 417.742188 566.285156 C 473.574219 566.285156 518.839844 518.09375 518.839844 458.691406 L 518.839844 368.945312 C 518.839844 338.816406 507.199219 311.542969 488.421875 292.050781 Z M 488.421875 292.050781 " fill-opacity="1" fill-rule="nonzero"/><g clip-path="url(#43bdb2fb58)"><path fill="#ffffff" d="M 344.128906 438.34375 C 344.128906 438.414062 344.128906 438.554688 344.128906 438.628906 C 344.203125 439.414062 344.203125 440.269531 344.273438 441.054688 C 344.273438 441.125 344.273438 441.199219 344.273438 441.269531 C 345.628906 455.40625 352.339844 468.257812 363.121094 477.039062 C 363.121094 477.039062 363.191406 477.109375 363.191406 477.109375 C 371.402344 483.824219 381.757812 487.820312 392.894531 487.820312 L 403.316406 487.820312 C 430.304688 487.820312 452.226562 464.472656 452.226562 435.84375 L 452.226562 356.449219 C 452.226562 348.097656 450.367188 340.242188 447.085938 333.246094 C 447.085938 333.246094 447.085938 333.175781 447.085938 333.175781 C 439.875 317.894531 426.378906 307.613281 410.886719 305.117188 C 410.886719 305.117188 410.816406 305.117188 410.816406 305.117188 C 410.03125 304.972656 409.246094 304.902344 408.386719 304.757812 C 408.386719 304.757812 408.386719 304.757812 408.316406 304.757812 C 407.601562 304.6875 406.886719 304.617188 406.175781 304.617188 C 406.03125 304.617188 405.816406 304.617188 405.675781 304.617188 C 404.890625 304.542969 404.175781 304.542969 403.390625 304.542969 L 392.964844 304.542969 C 388.753906 304.542969 384.683594 305.117188 380.757812 306.1875 C 379.472656 306.542969 378.257812 306.972656 376.972656 307.398438 C 376.402344 307.613281 375.832031 307.828125 375.1875 308.113281 C 371.191406 309.757812 367.40625 311.96875 363.976562 314.683594 C 363.550781 315.039062 363.121094 315.324219 362.765625 315.683594 C 361.835938 316.46875 360.980469 317.253906 360.050781 318.109375 C 350.199219 327.605469 343.988281 341.3125 343.988281 356.59375 L 343.988281 436.058594 C 344.058594 436.773438 344.058594 437.558594 344.128906 438.34375 Z M 450.796875 435.914062 C 450.796875 463.761719 429.519531 486.464844 403.316406 486.464844 L 392.894531 486.464844 C 382.113281 486.464844 372.117188 482.609375 364.121094 476.039062 C 360.835938 468.972656 359.125 461.402344 359.125 453.550781 L 359.125 374.085938 C 359.125 346.238281 380.398438 323.535156 406.601562 323.535156 L 417.027344 323.535156 C 427.523438 323.535156 437.445312 327.105469 445.800781 333.886719 C 449.011719 340.671875 450.796875 348.3125 450.796875 356.449219 Z M 403.390625 305.902344 C 404.105469 305.902344 404.890625 305.902344 405.601562 305.972656 C 405.746094 305.972656 405.886719 305.972656 406.101562 305.972656 C 407.601562 306.042969 409.171875 306.257812 410.601562 306.472656 C 410.601562 306.472656 410.671875 306.472656 410.671875 306.472656 C 425.023438 308.828125 437.304688 318.109375 444.371094 330.960938 C 436.304688 325.179688 426.949219 322.109375 417.097656 322.109375 L 406.675781 322.109375 C 379.6875 322.109375 357.765625 345.453125 357.765625 374.085938 L 357.765625 453.550781 C 357.765625 460.617188 359.050781 467.402344 361.621094 473.828125 C 361.40625 473.683594 361.265625 473.46875 361.050781 473.328125 C 361.050781 473.328125 360.980469 473.253906 360.980469 473.253906 C 353.695312 466.1875 348.484375 456.761719 346.414062 446.125 C 346.414062 446.054688 346.414062 445.980469 346.34375 445.910156 C 346.199219 445.195312 346.058594 444.410156 345.988281 443.695312 C 345.988281 443.484375 345.914062 443.199219 345.914062 442.984375 C 345.84375 442.410156 345.773438 441.769531 345.699219 441.199219 C 345.628906 440.769531 345.628906 440.339844 345.628906 439.839844 C 345.628906 439.414062 345.558594 438.984375 345.558594 438.558594 C 345.488281 437.699219 345.488281 436.773438 345.488281 435.914062 L 345.488281 356.449219 C 345.488281 328.605469 366.761719 305.902344 392.964844 305.902344 Z M 488.921875 291.550781 C 470.644531 262.277344 439.445312 243 404.03125 243 L 392.25 243 C 336.132812 243 290.4375 291.550781 290.4375 351.308594 L 290.4375 441.054688 C 290.4375 471.257812 302.148438 498.601562 320.996094 518.308594 C 320.996094 518.308594 320.996094 518.308594 320.996094 518.378906 C 339.917969 548.863281 371.6875 567 405.960938 567 L 417.742188 567 C 473.859375 567 519.550781 518.449219 519.550781 458.691406 L 519.550781 368.945312 C 519.550781 339.601562 508.699219 312.113281 488.921875 291.550781 Z M 291.867188 351.308594 C 291.867188 292.335938 336.917969 244.429688 392.25 244.429688 L 404.03125 244.429688 C 444.65625 244.429688 479.714844 270.203125 495.492188 307.257812 C 495.5625 307.398438 495.632812 307.542969 495.707031 307.6875 C 496.277344 308.972656 496.777344 310.257812 497.277344 311.542969 C 497.347656 311.828125 497.492188 312.039062 497.5625 312.328125 C 497.777344 312.96875 497.992188 313.613281 498.203125 314.183594 C 498.347656 314.609375 498.492188 315.039062 498.632812 315.46875 C 498.917969 316.324219 499.203125 317.109375 499.417969 317.96875 C 499.632812 318.609375 499.777344 319.253906 499.988281 319.894531 C 500.132812 320.394531 500.277344 320.894531 500.417969 321.394531 C 500.632812 322.035156 500.773438 322.75 500.988281 323.394531 C 501.0625 323.75 501.203125 324.179688 501.273438 324.535156 C 501.488281 325.535156 501.773438 326.605469 501.988281 327.605469 C 502.058594 327.960938 502.132812 328.320312 502.203125 328.675781 C 502.347656 329.535156 502.558594 330.390625 502.703125 331.175781 C 502.773438 331.460938 502.773438 331.746094 502.847656 332.03125 C 503.058594 333.101562 503.203125 334.246094 503.34375 335.386719 C 503.417969 335.671875 503.417969 335.886719 503.417969 336.171875 C 503.558594 337.101562 503.632812 338.03125 503.773438 338.957031 C 503.773438 339.242188 503.84375 339.527344 503.84375 339.8125 C 503.988281 340.957031 504.058594 342.097656 504.132812 343.242188 C 504.132812 343.457031 504.132812 343.597656 504.132812 343.8125 C 504.203125 344.8125 504.273438 345.8125 504.273438 346.8125 C 504.273438 347.097656 504.273438 347.453125 504.273438 347.738281 C 504.273438 348.882812 504.34375 350.09375 504.34375 351.238281 L 504.34375 440.984375 C 504.34375 499.886719 459.292969 547.867188 403.960938 547.867188 L 392.179688 547.867188 C 391.324219 547.867188 390.464844 547.867188 389.609375 547.867188 C 389.394531 547.867188 389.179688 547.867188 388.96875 547.867188 C 388.324219 547.867188 387.753906 547.792969 387.109375 547.792969 C 386.898438 547.792969 386.683594 547.792969 386.46875 547.722656 C 385.824219 547.652344 385.183594 547.652344 384.539062 547.578125 C 384.398438 547.578125 384.183594 547.578125 384.039062 547.507812 C 383.328125 547.4375 382.683594 547.367188 381.96875 547.292969 C 381.898438 547.292969 381.757812 547.292969 381.683594 547.292969 C 380.898438 547.222656 380.1875 547.152344 379.398438 547.007812 C 379.398438 547.007812 379.328125 547.007812 379.328125 547.007812 C 330.136719 540.296875 291.867188 495.390625 291.867188 441.054688 Z M 518.125 458.691406 C 518.125 517.59375 473.074219 565.570312 417.742188 565.570312 L 405.960938 565.570312 C 374.332031 565.570312 344.914062 549.863281 325.921875 523.234375 C 341.132812 537.15625 359.550781 545.867188 379.257812 548.507812 C 379.257812 548.507812 379.328125 548.507812 379.328125 548.507812 C 380.113281 548.578125 380.828125 548.722656 381.613281 548.792969 C 381.757812 548.792969 381.898438 548.792969 382.113281 548.863281 C 382.753906 548.9375 383.398438 549.007812 384.039062 549.078125 C 384.253906 549.078125 384.46875 549.152344 384.753906 549.152344 C 385.324219 549.222656 385.898438 549.222656 386.539062 549.292969 C 386.824219 549.292969 387.039062 549.292969 387.324219 549.363281 C 387.894531 549.363281 388.46875 549.4375 389.109375 549.4375 C 389.324219 549.4375 389.609375 549.4375 389.824219 549.4375 C 390.679688 549.4375 391.464844 549.4375 392.324219 549.4375 L 404.105469 549.4375 C 460.222656 549.4375 505.914062 500.886719 505.914062 441.125 L 505.914062 351.308594 C 505.914062 350.238281 505.914062 349.167969 505.84375 348.097656 C 505.84375 347.738281 505.84375 347.453125 505.84375 347.097656 C 505.84375 346.3125 505.773438 345.527344 505.773438 344.8125 C 505.773438 344.457031 505.703125 344.097656 505.703125 343.742188 C 505.628906 342.957031 505.558594 342.097656 505.488281 341.3125 C 505.488281 341.027344 505.414062 340.8125 505.414062 340.527344 C 505.34375 339.457031 505.203125 338.386719 505.058594 337.386719 C 505.058594 337.171875 504.988281 336.957031 504.988281 336.671875 C 504.917969 335.816406 504.773438 335.03125 504.628906 334.246094 C 504.558594 333.886719 504.488281 333.53125 504.488281 333.175781 C 504.34375 332.460938 504.273438 331.746094 504.128906 331.105469 C 504.058594 330.746094 503.988281 330.320312 503.917969 329.960938 C 503.773438 329.175781 503.632812 328.320312 503.417969 327.535156 C 503.34375 327.035156 503.203125 326.535156 503.058594 326.105469 C 502.917969 325.464844 502.773438 324.75 502.558594 324.105469 C 502.417969 323.605469 502.273438 323.109375 502.203125 322.609375 C 502.058594 322.179688 501.988281 321.679688 501.847656 321.25 C 501.703125 320.679688 501.558594 320.109375 501.347656 319.539062 C 501.273438 319.179688 501.132812 318.894531 501.0625 318.539062 C 500.417969 316.324219 499.703125 314.183594 498.917969 312.039062 C 498.847656 311.898438 498.847656 311.753906 498.777344 311.683594 C 496.992188 306.902344 494.921875 302.257812 492.492188 297.761719 C 509.128906 317.394531 518.195312 342.457031 518.195312 369.160156 L 518.195312 458.691406 Z M 518.125 458.691406 " fill-opacity="1" fill-rule="nonzero"/></g><g clip-path="url(#22bc01dc63)"><path fill="#15cc6d" d="M 796.65625 416.195312 L 764.699219 416.195312 L 764.699219 244.230469 L 675.417969 244.230469 L 572.804688 416.195312 L 572.804688 476.417969 L 704.40625 476.417969 L 704.40625 552.4375 L 764.625 552.4375 L 764.625 476.417969 L 796.582031 476.417969 L 796.582031 416.195312 Z M 647.226562 416.195312 L 703.027344 306.40625 L 704.476562 306.40625 L 704.476562 416.195312 Z M 647.226562 416.195312 " fill-opacity="1" fill-rule="nonzero"/></g><g clip-path="url(#ada7fb68d8)"><path fill="#00a859" d="M 666.578125 416.195312 L 647.15625 416.195312 L 702.957031 306.40625 L 704.40625 306.40625 L 704.40625 341.773438 Z M 777.308594 319.667969 L 777.308594 257.492188 L 764.699219 244.230469 L 764.699219 416.125 L 777.378906 416.125 L 777.378906 319.667969 Z M 796.65625 416.195312 L 796.65625 476.417969 L 764.699219 476.417969 L 764.699219 552.4375 L 704.476562 552.4375 L 717.160156 565.699219 L 777.378906 565.699219 L 777.378906 489.679688 L 809.335938 489.679688 L 809.335938 429.457031 Z M 704.40625 476.417969 L 572.804688 476.417969 L 585.484375 489.679688 L 704.476562 489.679688 L 704.476562 476.417969 Z M 704.40625 476.417969 " fill-opacity="1" fill-rule="nonzero"/></g><g clip-path="url(#4653d40a25)"><path fill="#ffffff" d="M 705.128906 416.195312 L 705.128906 306.335938 C 705.128906 305.898438 704.839844 305.609375 704.40625 305.609375 L 702.957031 305.609375 C 702.664062 305.609375 702.449219 305.753906 702.304688 305.972656 L 646.503906 415.761719 C 646.359375 415.980469 646.429688 416.269531 646.503906 416.484375 C 646.648438 416.703125 646.863281 416.847656 647.15625 416.847656 L 704.40625 416.847656 C 704.839844 416.921875 705.128906 416.558594 705.128906 416.195312 Z M 648.386719 415.472656 L 703.460938 307.132812 L 703.753906 307.132812 L 703.753906 341.554688 L 666.214844 415.472656 Z M 667.808594 415.472656 L 703.753906 344.742188 L 703.753906 415.472656 Z M 809.84375 428.949219 L 797.164062 415.6875 C 797.164062 415.6875 797.164062 415.6875 797.089844 415.6875 C 797.019531 415.617188 797.019531 415.617188 796.945312 415.542969 C 796.945312 415.542969 796.875 415.542969 796.875 415.542969 C 796.800781 415.542969 796.726562 415.542969 796.65625 415.472656 C 796.65625 415.472656 796.65625 415.472656 796.582031 415.472656 L 777.960938 415.472656 L 777.960938 257.492188 C 777.960938 257.273438 777.886719 257.128906 777.742188 256.984375 L 765.203125 243.722656 C 765.132812 243.648438 765.058594 243.648438 765.058594 243.578125 C 765.058594 243.578125 764.988281 243.578125 764.988281 243.578125 C 764.914062 243.578125 764.84375 243.578125 764.769531 243.503906 C 764.769531 243.503906 764.769531 243.503906 764.699219 243.503906 L 675.417969 243.503906 C 675.128906 243.503906 674.910156 243.648438 674.765625 243.867188 L 572.152344 415.761719 C 572.078125 415.90625 572.078125 416.050781 572.078125 416.195312 L 572.078125 476.417969 C 572.078125 476.417969 572.078125 476.417969 572.078125 476.488281 C 572.078125 476.5625 572.078125 476.632812 572.152344 476.707031 C 572.152344 476.707031 572.152344 476.78125 572.152344 476.78125 C 572.152344 476.851562 572.222656 476.925781 572.296875 476.996094 L 584.976562 490.257812 C 585.121094 490.402344 585.339844 490.476562 585.484375 490.476562 L 703.753906 490.476562 L 703.753906 552.4375 C 703.753906 552.4375 703.753906 552.4375 703.753906 552.507812 C 703.753906 552.582031 703.753906 552.652344 703.824219 552.726562 C 703.824219 552.726562 703.824219 552.796875 703.824219 552.796875 C 703.824219 552.871094 703.898438 552.941406 703.96875 553.015625 L 716.652344 566.277344 C 716.796875 566.421875 717.015625 566.496094 717.160156 566.496094 L 777.378906 566.496094 C 777.8125 566.496094 778.105469 566.203125 778.105469 565.769531 L 778.105469 490.402344 L 809.335938 490.402344 C 809.773438 490.402344 810.0625 490.113281 810.0625 489.679688 L 810.0625 429.457031 C 810.0625 429.242188 809.988281 429.09375 809.84375 428.949219 Z M 776.582031 415.472656 L 765.351562 415.472656 L 765.351562 246.042969 L 776.582031 257.78125 Z M 573.527344 416.339844 L 675.851562 244.953125 L 763.972656 244.953125 L 763.972656 416.195312 C 763.972656 416.632812 764.261719 416.921875 764.699219 416.921875 L 796.003906 416.921875 L 796.003906 475.691406 L 764.769531 475.691406 C 764.335938 475.691406 764.046875 475.980469 764.046875 476.417969 L 764.046875 551.710938 L 705.273438 551.710938 L 705.273438 476.488281 C 705.273438 476.054688 704.984375 475.765625 704.550781 475.765625 L 573.527344 475.765625 Z M 585.773438 488.953125 L 574.46875 477.140625 L 703.679688 477.140625 L 703.679688 488.953125 Z M 808.613281 488.953125 L 777.378906 488.953125 C 776.945312 488.953125 776.65625 489.242188 776.65625 489.679688 L 776.65625 564.972656 L 717.449219 564.972656 L 706.144531 553.160156 L 764.699219 553.160156 C 765.132812 553.160156 765.421875 552.871094 765.421875 552.4375 L 765.421875 477.140625 L 796.65625 477.140625 C 797.089844 477.140625 797.378906 476.851562 797.378906 476.417969 L 797.378906 418.007812 L 808.613281 429.746094 Z M 808.613281 488.953125 " fill-opacity="1" fill-rule="nonzero"/></g></svg>