<?xml version="1.0" encoding="utf-8"?>
<!-- Generator: Adobe Illustrator 24.0.1, SVG Export Plug-In . SVG Version: 6.00 Build 0)  -->
<svg version="1.1" id="Layer_1" xmlns="http://www.w3.org/2000/svg" xmlns:xlink="http://www.w3.org/1999/xlink" x="0px" y="0px"
	 viewBox="0 0 85 74.3" style="enable-background:new 0 0 85 74.3;" xml:space="preserve">
<style type="text/css">
	.st0{fill:#FFFFFF;}
	.st1{fill:none;stroke:#161C21;stroke-width:1.188;stroke-miterlimit:10;}
	.st2{fill:none;stroke:#161C21;stroke-width:1.188;stroke-linecap:round;stroke-linejoin:round;stroke-miterlimit:10;}
</style>
<path class="st0" d="M37,14.6l3.6-7.1c0.5-1.1,2.1-1,2.6,0l3.4,7.2c0.2,0.4,0.6,0.7,1.1,0.8l7.9,1.2c1.2,0.2,1.6,1.6,0.8,2.5
	l-5.8,5.5c-0.3,0.3-0.5,0.8-0.4,1.3l1.2,7.9c0.2,1.2-1.1,2.1-2.1,1.5l-7-3.8c-0.4-0.2-0.9-0.2-1.3,0l-7.1,3.6
	c-1.1,0.5-2.3-0.4-2.1-1.5l1.4-7.8c0.1-0.5-0.1-0.9-0.4-1.3l-5.6-5.6c-0.8-0.8-0.4-2.3,0.8-2.5l7.9-1C36.3,15.3,36.7,15.1,37,14.6z"
	/>
<path class="st1" d="M27.6,55.9c0,0-2.1-5.3,0.1-8.4s2.2-5.7,2.2-5.7s-6.1,0.7-8-2.4s-1.9-3-1.9-3l2.9-2.4c0,0-0.4-5.3,1-6.6
	s2.6-2.2,2.6-2.2l-1-3.5c0,0,4.7-0.3,5.8,4.6"/>
<path class="st1" d="M45.3,37.8c0,0-4.6,2.4-6.4-3.7S37,22.8,29.8,23.5"/>
<path class="st1" d="M42.2,42.8c0,0,4.7-6.2,6.6-14.9s5.5-7.1,5.5-7.1l1.9,5.7"/>
<path class="st2" d="M41.6,66.8c0,0,18-3.4,27.5-17.7C79.1,34,81,20.3,69.9,13.4c-9.7-6-25.5,1.5-26.7,12.6c0,0-6.1-18.2-23.1-13
	c-13,4-13.6,26.9,2.6,39.2"/>
<path class="st1" d="M55.8,23.8c0,0,4,0,5.5,1.9c1.5,1.9,0.7,3.6,0.7,3.6l5.5,1.4c0,0,0.6,6.4-4.2,6.9s-9.3,0.4-7.8,4.8
	c1.5,4.4,9,9.7-0.3,19.1"/>
</svg>
