<?xml version="1.0" encoding="utf-8"?>
<!-- Generator: Adobe Illustrator 24.0.1, SVG Export Plug-In . SVG Version: 6.00 Build 0)  -->
<svg version="1.1" id="Layer_1" xmlns="http://www.w3.org/2000/svg" xmlns:xlink="http://www.w3.org/1999/xlink" x="0px" y="0px"
	 viewBox="0 0 85 42.5" style="enable-background:new 0 0 85 42.5;" xml:space="preserve">
<style type="text/css">
	.st0{fill:#FFFFFF;}
	.st1{fill:none;stroke:#FFFFFF;stroke-width:1.5467;stroke-linecap:round;stroke-linejoin:round;stroke-miterlimit:10;}
</style>
<path class="st0" d="M37,14.6l3.6-7.1c0.5-1.1,2.1-1,2.6,0l3.4,7.2c0.2,0.4,0.6,0.7,1.1,0.8l7.9,1.2c1.2,0.2,1.6,1.6,0.8,2.5
	l-5.8,5.5c-0.3,0.3-0.5,0.8-0.4,1.3l1.2,7.9c0.2,1.2-1.1,2.1-2.1,1.5l-7-3.8c-0.4-0.2-0.9-0.2-1.3,0l-7.1,3.6
	c-1.1,0.5-2.3-0.4-2.1-1.5l1.4-7.8c0.1-0.5-0.1-0.9-0.4-1.3l-5.6-5.6c-0.8-0.8-0.4-2.3,0.8-2.5l7.9-1C36.3,15.3,36.7,15.1,37,14.6z"
	/>
<path class="st0" d="M37.4,15.1L41,8c0.5-1.1,2.1-1,2.6,0l3.4,7.2c0.2,0.4,0.6,0.7,1.1,0.8l7.9,1.2c1.2,0.2,1.6,1.6,0.8,2.5L51,25.3
	c-0.3,0.3-0.5,0.8-0.4,1.3l1.2,7.9c0.2,1.2-1.1,2.1-2.1,1.5l-7-3.8c-0.4-0.2-0.9-0.2-1.3,0l-7.1,3.6c-1.1,0.5-2.3-0.4-2.1-1.5
	l1.4-7.8c0.1-0.5-0.1-0.9-0.4-1.3l-5.6-5.6c-0.8-0.8-0.4-2.3,0.8-2.5l7.9-1C36.8,15.8,37.2,15.6,37.4,15.1z"/>
<path class="st1" d="M53.9,12.7L56.3,8c0.5-1.1,2.1-1,2.6,0l3.4,7.2c0.2,0.4,0.6,0.7,1.1,0.8l7.9,1.2c1.2,0.2,1.6,1.6,0.8,2.5
	l-5.8,5.5c-0.3,0.3-0.5,0.8-0.4,1.3l1.2,7.9c0.2,1.2-1.1,2.1-2.1,1.5l-7-3.8c-0.4-0.2-0.9-0.2-1.3,0l-1.3,0.7"/>
<path class="st1" d="M31.4,12.7L29.1,8c-0.5-1.1-2.1-1-2.6,0L23,15.3c-0.2,0.4-0.6,0.7-1.1,0.8l-7.9,1.2c-1.2,0.2-1.6,1.6-0.8,2.5
	l5.8,5.5c0.3,0.3,0.5,0.8,0.4,1.3l-1.2,7.9c-0.2,1.2,1.1,2.1,2.1,1.5l7-3.8c0.4-0.2,0.9-0.2,1.3,0l1.3,0.7"/>
</svg>
