<svg width="36" height="36" viewBox="0 0 36 36" fill="none" xmlns="http://www.w3.org/2000/svg">
<path d="M28.2784 21.989H26.2941C23.1373 21.989 20.5216 24.5315 20.5216 27.6V29.1781L17.8157 31.8082V19.0959C22.3255 18.7452 25.9333 15.063 25.9333 10.5041C25.9333 9.18904 25.6627 7.87397 25.0314 6.64658C24.851 6.29589 24.4902 6.20822 24.1294 6.38356C23.7686 6.5589 23.6784 6.90959 23.8588 7.26027C24.4 8.22466 24.6706 9.36438 24.6706 10.5041C24.6706 14.537 21.3333 17.7808 17.1843 17.7808C12.9451 17.8685 9.60784 14.537 9.60784 10.5918C9.60784 6.5589 12.9451 3.31507 17.0941 3.31507C18.0863 3.31507 18.9882 3.49041 19.8902 3.8411C20.251 4.01644 20.6118 3.8411 20.7922 3.49041C20.9725 3.13973 20.7922 2.78904 20.4314 2.6137C19.349 2.17534 18.2667 2 17.0941 2C12.2235 2 8.2549 5.85753 8.2549 10.5918C8.2549 15.063 11.8627 18.8329 16.3725 19.1836V27.7753L14.4784 25.9342V24.4438C14.4784 21.2 11.8627 18.6575 8.70588 18.6575H6.72157C6.27059 18.6575 6 19.0082 6 19.3589V21.2877C6 24.3562 8.61569 26.8986 11.7725 26.8986H13.7569L16.4627 29.5288V33.2986C16.4627 33.6493 16.7333 34 17.1843 34C17.3647 34 17.4549 34 17.5451 33.9123C17.6353 33.9123 17.7255 33.8247 17.7255 33.737L21.3333 30.2301H23.2275C26.3843 30.2301 29 27.6877 29 24.6192V22.6904C29 22.2521 28.6392 21.989 28.2784 21.989ZM13.1255 24.5315L11.051 22.5151C10.7804 22.2521 10.3294 22.2521 10.0588 22.5151C9.78824 22.7781 9.78824 23.2164 10.0588 23.4795L12.4039 25.6712H11.7725C9.33726 25.6712 7.35294 23.7425 7.35294 21.3753V20.0603H8.70588C11.1412 20.0603 13.1255 21.989 13.1255 24.3562V24.5315ZM27.6471 24.6192C27.6471 26.9863 25.6627 28.9151 23.2275 28.9151H22.6863L25.2118 26.4603C25.4824 26.1973 25.4824 25.7589 25.2118 25.4959C24.9412 25.2329 24.4902 25.2329 24.2196 25.4959L21.8745 27.7753V27.5123C21.8745 25.1452 23.8588 23.2164 26.2941 23.2164H27.6471V24.6192Z" fill="white"/>
<path d="M22.7765 5.59452C22.5961 5.59452 22.4157 5.50685 22.3255 5.41918C22.1451 5.24384 21.8745 5.06849 21.6941 4.89315C21.3333 4.63014 21.3333 4.19178 21.5137 3.92877C21.7843 3.66575 22.1451 3.57808 22.5059 3.8411C22.7765 4.01644 23.0471 4.27945 23.3177 4.45479C23.5882 4.71781 23.5882 5.15616 23.3177 5.41918C23.1373 5.50685 22.9569 5.59452 22.7765 5.59452Z" fill="white"/>
<path d="M19.2588 10.8548C18.9882 10.5918 18.7176 10.4164 18.4471 10.2411C18.1765 10.1534 17.7255 9.97808 17.2745 9.89041C16.9137 9.80274 16.5529 9.71507 16.3725 9.6274C16.1922 9.53973 16.0118 9.45205 15.9216 9.36438C15.8314 9.27671 15.7412 9.10137 15.7412 8.92603C15.7412 8.66301 15.8314 8.48767 16.0118 8.31233C16.2824 8.22466 16.5529 8.13699 17.0039 8.13699C17.2745 8.13699 17.5451 8.22466 17.8157 8.31233C18.0863 8.4 18.2667 8.57534 18.5373 8.75069C18.898 9.0137 19.2588 8.92603 19.4392 8.66301C19.5294 8.57534 19.6196 8.4 19.6196 8.22466C19.6196 7.96164 19.5294 7.7863 19.349 7.69863C19.0784 7.43562 18.8078 7.26027 18.4471 7.08493C18.1765 6.99726 17.9059 6.90959 17.6353 6.90959V6.47123C17.6353 6.20822 17.5451 6.12055 17.4549 6.03288C17.1843 5.76986 16.7333 5.76986 16.4627 6.03288C16.3725 6.12055 16.2824 6.29589 16.2824 6.47123V6.90959C15.9216 6.99726 15.651 7.08493 15.3804 7.1726C15.0196 7.34795 14.749 7.61096 14.5686 7.96164C14.3882 8.22466 14.298 8.66301 14.298 9.0137C14.298 9.53973 14.3882 9.89041 14.6588 10.2411C14.9294 10.5041 15.2 10.7671 15.5608 10.8548C15.8314 10.9425 16.2824 11.1178 16.8235 11.2055C17.1843 11.2932 17.4549 11.3808 17.7255 11.4685C17.9059 11.5562 17.9961 11.6438 18.1765 11.7315C18.2667 11.8192 18.2667 11.9068 18.2667 12.0822C18.2667 12.3452 18.1765 12.5205 17.9961 12.6959C17.8157 12.8712 17.4549 12.9589 17.0039 12.9589C16.4627 12.9589 15.8314 12.7836 15.2902 12.3452C14.9294 12.0822 14.5686 12.1699 14.3882 12.4329C14.2078 12.4329 14.1176 12.6082 14.1176 12.7836C14.1176 13.0466 14.2078 13.2219 14.3882 13.3096C14.6588 13.5726 15.0196 13.7479 15.4706 13.9233C15.7412 14.011 16.102 14.0986 16.3725 14.0986V14.537C16.3725 14.8 16.4627 14.8877 16.5529 14.9753C16.6431 15.063 16.8235 15.1507 17.0039 15.1507C17.1843 15.1507 17.3647 15.063 17.4549 14.9753C17.5451 14.8877 17.6353 14.7123 17.6353 14.537V14.0986C18.1765 14.011 18.6274 13.7479 18.9882 13.4849C19.4392 13.0466 19.6196 12.6082 19.6196 11.9945C19.7098 11.5562 19.5294 11.2055 19.2588 10.8548Z" fill="white"/>
</svg>
